<?xml version="1.0" standalone="no"?><!DOCTYPE svg PUBLIC "-//W3C//DTD SVG 1.1//EN" "http://www.w3.org/Graphics/SVG/1.1/DTD/svg11.dtd"><svg t="1742307277419" class="icon" viewBox="0 0 1024 1024" version="1.1" xmlns="http://www.w3.org/2000/svg" p-id="2919" width="32" height="32" xmlns:xlink="http://www.w3.org/1999/xlink"><path d="M512 17.107c10.996 0.345 27.493 49.831 49.49 148.467l16.497 181.46 32.992 115.475v32.992l181.46 151.045v-35.57c0-8.935 0.772-16.669 2.319-23.198s3.521-9.794 5.927-9.794c2.405 0 4.383 3.264 5.927 9.794 1.548 6.53 2.319 14.265 2.319 23.198v164.964h-16.497v-32.992h-214.454v82.482l115.475 98.979v49.49l-16.497 16.497h-98.979v-16.497h-16.497v-65.985h-4.125l-12.372 98.979h-65.985l-12.372-98.979h-4.125v65.985h-16.497v16.497h-98.979l-16.497-16.497v-49.49l115.475-98.979v-82.482h-214.454v32.992h-16.497v-164.964c0-8.935 0.772-16.669 2.319-23.198s3.521-9.794 5.927-9.794c2.405 0 4.383 3.264 5.927 9.794 1.548 6.53 2.319 14.265 2.319 23.198v35.57l181.46-151.045v-32.992l32.992-115.475 16.497-181.46c19.934-89.699 35.915-139.018 47.943-147.952l1.548-0.515z" p-id="2920" fill="#2c2c2c"></path></svg>